<svg width="83" height="77" viewBox="0 0 83 77" fill="none" xmlns="http://www.w3.org/2000/svg">
<path d="M41.25 1.71875C35.4269 1.71875 30.25 0 30.25 0V0.34375C30.25 3.26113 31.4089 6.05903 33.4718 8.12193C35.5347 10.1848 38.3326 11.3437 41.25 11.3438C44.1674 11.3437 46.9653 10.1848 49.0282 8.12193C51.0911 6.05903 52.25 3.26113 52.25 0.34375V0C52.25 0 47.0731 1.71875 41.25 1.71875Z" fill="#FF00D4"/>
<path d="M57.75 2.0625C56.8064 10.2712 49.708 16.6719 41.25 16.6719C32.792 16.6719 25.6936 10.2712 24.75 2.0625L0 10.6562L3.09375 30.25L13.7002 31.5253C14.917 31.68 14.9205 31.68 14.9205 32.933L13.75 77H68.75L67.5795 32.933C67.5434 31.7298 67.5434 31.7298 68.7998 31.5253L79.4062 30.25L82.5 10.6562L57.75 2.0625Z" fill="#FF00D4"/>
</svg>
